<svg width="798" height="98" viewBox="0 0 798 98" fill="none" xmlns="http://www.w3.org/2000/svg">
  <path d="M719.466 18.5562C719.466 12.652 721.013 8.0832 724.107 4.84992C727.201 1.61664 731.562 0 737.187 0C739.332 0 741.407 0.210866 743.411 0.632598C745.45 1.05433 747.912 1.84508 750.795 3.00484L747.103 10.9123C743.376 9.68227 740.317 9.06724 737.926 9.06724C735.254 9.06724 733.197 9.84042 731.755 11.3868C730.348 12.9331 729.645 15.0769 729.645 17.8182V25.9892H745.415V34.7402H729.645V77.915C729.645 81.6403 729.364 85.0493 728.801 88.142C728.274 91.2699 727.395 94.5559 726.164 98H719.466V34.7402H709.761V25.9892H719.466V18.5562Z" fill="white"/>
  <path d="M22.8904 25.9892C24.3321 28.7305 25.7737 31.542 27.2153 34.4239C28.657 37.3057 29.6415 39.2914 30.1689 40.3808H30.8018C31.2941 39.2914 32.3841 37.0949 34.0719 33.7913C35.7948 30.4877 37.1486 27.887 38.1331 25.9892L49.6838 5.06079H60.918L35.5487 49.3427V81.4997H25.2638V49.3427L0 5.06079H11.3397L22.8904 25.9892Z" fill="white"/>
  <path fill-rule="evenodd" clip-rule="evenodd" d="M92.511 24.9349C100.844 24.9349 107.314 27.4653 111.92 32.5261C116.527 37.5517 118.83 44.5982 118.83 53.6654C118.83 62.7327 116.527 69.7791 111.92 74.8047C107.314 79.8304 100.844 82.3432 92.511 82.3432C84.1425 82.3432 77.6551 79.8304 73.0489 74.8047C68.4427 69.7791 66.1396 62.7327 66.1396 53.6654C66.1396 44.5982 68.4427 37.5517 73.0489 32.5261C77.6551 27.4653 84.1425 24.9349 92.511 24.9349ZM92.511 33.8967C87.3071 33.8967 83.3338 35.5836 80.5911 38.9575C77.8837 42.3314 76.5299 47.234 76.5299 53.6654C76.5299 60.0617 77.8837 64.9467 80.5911 68.3206C83.3338 71.6945 87.3071 73.3814 92.511 73.3814C97.6798 73.3814 101.636 71.6945 104.378 68.3206C107.121 64.9467 108.492 60.0617 108.492 53.6654C108.492 47.2691 107.121 42.3841 104.378 39.0102C101.636 35.6012 97.6798 33.8967 92.511 33.8967Z" fill="white"/>
  <path d="M143.883 70.6928C142.195 68.8302 141.351 65.8781 141.351 61.8365V25.9892H131.172V62.6272C131.172 69.0938 132.771 74.014 135.971 77.3878C139.206 80.7617 143.918 82.4486 150.106 82.4486C157.736 82.4838 163.995 79.6195 168.883 73.8558L170.201 81.4997H178.376V25.9892H168.25V65.3158C166.386 67.811 164.013 69.7967 161.13 71.2727C158.246 72.7488 155.222 73.4868 152.058 73.4868C148.295 73.4868 145.57 72.5555 143.883 70.6928Z" fill="white"/>
  <path d="M205.486 33.7913C207.42 30.9094 209.688 28.7305 212.29 27.2544C214.892 25.7784 217.74 25.0403 220.834 25.0403C222.909 25.0403 225.318 25.4269 228.06 26.2001L226.214 36.1635C222.698 35.4606 220.325 35.0916 219.094 35.0565C216 35.0565 213.433 35.6364 211.394 36.7961C209.389 37.9559 207.666 39.8361 206.225 42.4368V81.4997H196.098V25.9892H204.22L205.486 33.7913Z" fill="white"/>
  <path fill-rule="evenodd" clip-rule="evenodd" d="M306.439 9.87741C301.938 6.01153 295.433 4.07859 286.924 4.07859H264.35V68.8471L274.741 67.8856V49.0985H286.924C295.293 49.0985 301.762 47.148 306.333 43.247C310.905 39.3108 313.19 33.7404 313.19 26.5358C313.19 19.2609 310.94 13.7081 306.439 9.87741ZM302.378 26.5358C302.378 35.4625 297.227 39.9258 286.924 39.9258H274.741V13.2513H286.924C292.198 13.2513 296.084 14.3583 298.58 16.5724C301.112 18.7514 302.378 22.0725 302.378 26.5358Z" fill="white"/>
  <path d="M335.237 62.2869L325.11 63.2241V25.007H333.232L334.498 32.8091C336.432 29.9273 338.7 27.7483 341.302 26.2722C343.904 24.7962 346.752 24.0582 349.846 24.0582C351.921 24.0582 354.33 24.4447 357.072 25.2179L355.226 35.1813C351.71 34.4785 349.337 34.1094 348.106 34.0743C345.012 34.0743 342.445 34.6542 340.405 35.8139C338.401 36.9737 336.678 38.8539 335.237 41.4546V62.2869Z" fill="white"/>
  <path d="M376.376 58.4796L366.249 59.4167V25.007H376.376V58.4796Z" fill="white"/>
  <path d="M407.838 55.5679L397.419 56.5321L386.186 25.007H396.893L407.494 54.581C407.607 54.8986 407.722 55.2276 407.838 55.5679Z" fill="white"/>
  <path d="M417.592 54.6652L428.293 53.6749L438.507 25.007H428.222L417.621 54.581C417.612 54.608 417.602 54.6361 417.592 54.6652Z" fill="white"/>
  <path d="M488.613 48.0925L449.72 51.6919C449.848 51.5996 449.979 51.5083 450.111 51.418C454.893 48.1496 461.609 46.5154 470.258 46.5154H478.434V44.9866C478.152 37.0791 474.091 33.1254 466.25 33.1254C463.859 33.1254 461.169 33.4944 458.18 34.2324C455.192 34.9353 452.185 35.9018 449.161 37.1318L446.366 28.9081C449.601 27.3969 453.011 26.2371 456.598 25.4288C460.22 24.5853 463.683 24.1636 466.988 24.1636C473.915 24.1636 479.242 25.9911 482.969 29.6461C486.732 33.266 488.613 38.4498 488.613 45.1975V48.0925Z" fill="white"/>
  <path d="M507.337 46.3596V33.758H497.632V25.007H507.864L510.027 9.13938H517.516V25.007H534.447V33.758H517.516V45.4176L507.337 46.3596Z" fill="white"/>
  <path d="M579.732 39.6597C579.151 38.3639 578.402 37.2577 577.485 36.3411C575.34 34.127 572.369 33.02 568.571 33.02C561.582 33.02 556.921 36.0089 554.586 41.9869L543.55 43.0082C544.629 38.4455 546.552 34.6416 549.32 31.5966C553.856 26.571 560.273 24.0582 568.571 24.0582C576.342 24.0582 582.126 26.3953 585.924 31.0694C587.625 33.1448 588.949 35.6947 589.895 38.7192L579.732 39.6597Z" fill="white"/>
  <path d="M376.376 4.50033H366.249V14.8855H376.376V4.50033Z" fill="white"/>
  <path d="M679.17 81.4997H633.864V5.06079H644.254V72.3271H679.17V81.4997Z" fill="white"/>
  <path d="M699.371 5.48252H689.244V15.8677H699.371V5.48252Z" fill="white"/>
  <path d="M699.371 25.9892H689.244V81.4997H699.371V25.9892Z" fill="white"/>
  <path fill-rule="evenodd" clip-rule="evenodd" d="M763.875 68.7951C761.062 65.7375 759.515 61.3269 759.234 55.5632H798V53.2964C798 43.8074 796.084 36.7258 792.251 32.0516C788.454 27.3774 782.669 25.0403 774.899 25.0403C766.6 25.0403 760.183 27.5532 755.647 32.5788C751.112 37.5693 748.844 44.5982 748.844 53.6654C748.844 62.7327 751.147 69.7791 755.753 74.8047C760.359 79.8304 766.847 82.3432 775.215 82.3432C778.591 82.3432 781.949 81.9215 785.289 81.078C788.629 80.1994 792.216 78.8288 796.048 76.9661L792.831 69.4276C789.491 70.8686 786.502 71.8878 783.865 72.4852C781.263 73.0827 778.555 73.3814 775.742 73.3814C770.644 73.3814 766.688 71.8526 763.875 68.7951ZM783.812 37.3233C785.992 39.5022 787.223 42.7531 787.504 47.0758H759.761C761.414 38.3601 766.46 34.0022 774.899 34.0022C778.696 34.0022 781.667 35.1092 783.812 37.3233Z" fill="white"/>
  <path d="M282.061 74.7413L271.678 75.7788L271.721 81.7424L282.111 81.6665L282.061 74.7413Z" fill="white"/>
  <path d="M332.395 69.7118L342.514 68.7006L342.606 81.2244L332.48 81.2984L332.395 69.7118Z" fill="white"/>
  <path d="M373.505 65.6039L373.618 80.9977L383.744 80.9237L383.625 64.5927L373.505 65.6039Z" fill="white"/>
  <path d="M406.62 62.295L413.332 80.7074L426.096 80.6142L433.404 59.6187L422.898 60.6685C422.505 61.9264 422.056 63.367 421.551 64.9902L419.851 70.4852C418.662 66.6982 418.069 64.875 418.07 65.0156C417.767 64.157 417.348 62.9106 416.813 61.2765L406.62 62.295Z" fill="white"/>
  <path d="M451.631 57.7974C450.652 59.9321 450.172 62.3302 450.191 64.9917C450.228 70.0172 451.892 74.0116 455.184 76.9749C458.476 79.9382 462.899 81.3995 468.455 81.3589C475.206 81.3096 481.27 78.7524 486.648 73.6873L488.172 80.1605L495.978 80.1034L495.783 53.3856L485.611 54.4021L485.691 65.3649C483.913 67.4866 481.622 69.1903 478.819 70.476C476.015 71.7266 473.136 72.3627 470.183 72.3843C467.088 72.4069 464.675 71.7567 462.942 70.4339C461.209 69.0759 460.334 67.1317 460.315 64.6014C460.291 61.2979 461.837 58.721 464.953 56.8707C465.237 56.6988 465.531 56.5345 465.836 56.378L451.631 57.7974Z" fill="white"/>
  <path d="M514.493 51.516L514.587 64.3102C514.626 69.652 516.045 73.7009 518.843 76.4569C521.675 79.1775 525.764 80.5183 531.109 80.4793C534.695 80.4531 538.574 79.5988 542.746 77.9165L540.789 69.9704C538.054 70.9041 535.42 71.3803 532.888 71.3988C530.005 71.4198 527.926 70.7497 526.65 69.3884C525.409 68.0268 524.777 65.7645 524.754 62.6016L524.666 50.4996L514.493 51.516Z" fill="white"/>
  <path d="M549.676 51.8759C549.667 50.5359 549.707 49.2401 549.797 47.9884L578.984 45.0719L588.212 44.1499L598.236 43.1482C598.61 45.5899 599.041 46.6456 599.062 49.5369L560.08 53.6977C560.404 59.4592 561.983 63.8583 564.818 66.8953C567.654 69.9322 571.62 71.432 576.719 71.3947C579.532 71.3742 582.237 71.0557 584.834 70.4392C587.467 69.8225 590.448 68.7815 593.778 67.3162L597.05 74.831C593.232 76.7216 589.655 78.1184 586.321 79.0214C582.987 79.8892 579.632 80.3355 576.257 80.3602C567.889 80.4213 561.383 77.956 556.74 72.9641C552.097 67.9723 549.743 60.9429 549.676 51.8759Z" fill="white"/>
</svg>
